<svg xmlns="http://www.w3.org/2000/svg" viewBox="0 0 378.5 92.5" style="enable-background:new 0 0 378.5 92.5" xml:space="preserve"><path d="M120.4 60.1c-3.8 0-7.3-.4-10.4-1.2-3.1-.8-5.8-2.1-8-3.7s-4-3.7-5.2-6.1c-1.3-2.4-1.9-5.2-2-8.4h14.3c.3 2.9 1.4 5 3.3 6.3 1.9 1.3 4.5 1.9 7.9 1.9 1.2 0 2.3-.1 3.4-.3 1.1-.2 2.1-.6 2.9-1 .9-.5 1.6-1.1 2.1-1.9.5-.8.8-1.7.8-2.8 0-1.1-.3-2.1-.8-2.8-.6-.7-1.4-1.4-2.4-1.9-1.1-.5-2.4-1-3.9-1.4s-3.3-.8-5.3-1.3c-2.5-.6-5-1.3-7.4-2-2.4-.7-4.6-1.8-6.5-3.1-1.9-1.3-3.5-2.9-4.7-4.9-1.2-2-1.8-4.5-1.8-7.5s.6-5.7 1.8-7.9c1.2-2.2 2.8-4.1 4.8-5.5 2-1.4 4.4-2.5 7.2-3.2 2.8-.7 5.8-1 9-1 3.1 0 6 .4 8.7 1.1 2.7.7 5.1 1.8 7.1 3.3 2 1.4 3.6 3.3 4.8 5.5 1.2 2.2 1.9 4.8 2 7.8h-13.9c-.3-2.2-1.2-4-2.8-5.1-1.6-1.2-3.7-1.8-6.4-1.8-2.5 0-4.5.5-6 1.5s-2.2 2.3-2.2 3.9c0 1 .3 1.9.8 2.5.6.7 1.4 1.2 2.4 1.7 1.1.5 2.4.9 4.1 1.3 1.6.4 3.5.8 5.7 1.3 2.7.6 5.2 1.4 7.7 2.2 2.4.8 4.6 1.9 6.5 3.2 1.9 1.3 3.4 3 4.5 5.1 1.1 2 1.7 4.6 1.7 7.6s-.6 5.7-1.8 8c-1.2 2.3-2.9 4.3-5 5.9-2.1 1.6-4.6 2.8-7.5 3.6-3.1.6-6.2 1.1-9.5 1.1zM161.1 59.9c-4.8 0-8.4-1.4-10.8-4.2-2.4-2.8-3.7-6.5-3.7-11.1v-27h13v24.2c0 2.2.5 4 1.5 5.2 1 1.2 2.6 1.8 4.7 1.8 2.2 0 4-.8 5.3-2.3 1.3-1.5 1.9-3.5 1.9-6v-23h13.1v41.1h-12.5v-5.1h-.2c-1.5 2-3.2 3.6-5.1 4.7-2 1.2-4.3 1.7-7.2 1.7zM190.4 17.6h12.5v5h.2c1.4-1.9 3.1-3.4 5.1-4.5 2-1.1 4.5-1.7 7.3-1.7 2.7 0 5.2.5 7.3 1.6 2.2 1.1 4 2.6 5.5 4.6 1.5 2 2.7 4.3 3.5 6.9.8 2.6 1.2 5.5 1.2 8.6 0 3.3-.4 6.3-1.3 9s-2.1 5-3.7 6.9c-1.6 1.9-3.5 3.4-5.7 4.4-2.2 1-4.6 1.5-7.3 1.5s-5-.5-6.9-1.5c-1.9-1-3.5-2.3-4.8-4.1h-.2v17.8H190V17.6zm21.5 32.3c2.5 0 4.5-1 5.9-3 1.4-2 2.1-4.7 2.1-8.3 0-3.5-.7-6.4-2-8.5-1.3-2.1-3.4-3.2-6.3-3.2-1.4 0-2.7.3-3.8.9-1.1.6-2 1.4-2.7 2.4-.7 1-1.3 2.3-1.6 3.7-.3 1.4-.5 3-.5 4.7 0 3.4.8 6.1 2.3 8.1 1.6 2.1 3.8 3.2 6.6 3.2zM235.7 17.6h12.5v5h.2c1.4-1.9 3.1-3.4 5.1-4.5 2-1.1 4.5-1.7 7.3-1.7 2.7 0 5.2.5 7.3 1.6 2.2 1.1 4 2.6 5.5 4.6 1.5 2 2.7 4.3 3.5 6.9.8 2.6 1.2 5.5 1.2 8.6 0 3.3-.4 6.3-1.3 9s-2.1 5-3.7 6.9c-1.6 1.9-3.5 3.4-5.7 4.4-2.2 1-4.6 1.5-7.3 1.5s-5-.5-6.9-1.5c-1.9-1-3.5-2.3-4.8-4.1h-.2v17.8h-13.1V17.6zm21.5 32.3c2.5 0 4.5-1 5.9-3 1.4-2 2.1-4.7 2.1-8.3 0-3.5-.7-6.4-2-8.5-1.3-2.1-3.4-3.2-6.3-3.2-1.4 0-2.7.3-3.8.9-1.1.6-2 1.4-2.7 2.4-.7 1-1.3 2.3-1.6 3.7-.3 1.4-.5 3-.5 4.7 0 3.4.8 6.1 2.3 8.1 1.6 2.1 3.8 3.2 6.6 3.2zM301.1 60c-3.3 0-6.3-.5-9-1.6s-5-2.6-6.9-4.6c-1.9-2-3.4-4.3-4.5-6.9s-1.6-5.5-1.6-8.6c0-3.1.5-6 1.6-8.6s2.5-4.9 4.5-6.9c1.9-2 4.2-3.5 6.9-4.6 2.7-1.1 5.7-1.6 9-1.6s6.3.5 9 1.6 5 2.6 6.9 4.6c1.9 2 3.4 4.3 4.4 6.9 1 2.6 1.6 5.5 1.6 8.6 0 3.1-.5 6-1.6 8.6-1 2.6-2.5 4.9-4.4 6.9-1.9 2-4.2 3.5-6.9 4.6-2.7 1-5.7 1.6-9 1.6zm-.1-9.3c2.9 0 5.1-1.1 6.5-3.4 1.5-2.3 2.2-5.3 2.2-9s-.7-6.8-2.2-9.1c-1.5-2.3-3.7-3.5-6.5-3.5-2.9 0-5.1 1.2-6.5 3.5-1.4 2.3-2.2 5.3-2.2 9.1 0 3.7.7 6.8 2.2 9 1.5 2.2 3.6 3.4 6.5 3.4zM325.5 17.6H338V24h.2c1.4-2.5 3-4.3 4.8-5.4 1.8-1.1 3.9-1.7 6.4-1.7 1.2 0 2.1.1 2.6.3v11.2h-.3c-4-.6-7.2.1-9.6 2-2.4 2-3.6 5.2-3.6 9.7v18.5h-13.1v-41zM371.4 59.2c-1.9 0-3.7-.2-5.3-.5-1.6-.3-3-.9-4.1-1.8-1.2-.9-2.1-2-2.7-3.5-.6-1.5-1-3.3-1-5.5V25.8h-5.5v-8.2h5.5v-13h12.8v13h7.5v8.2h-7.5v19.3c0 1.6.4 2.7 1.2 3.2.8.5 1.9.8 3.3.8h2.9v9.5c-.6.2-1.5.3-2.7.4-1.1.1-2.6.2-4.4.2zM91.3 60H71.6c-.3-2.1-3.1-19.6-3.1-19.6S57.7 58.6 56.9 59.9h-2.2c-1.3-2.3-1.8-5.6-1.8-7.6 0-3.4.2-6.6.2-10.9 0-5.7-1.7-8.7-6.1-9.7v-.2c9.4-1.3 13.7-7.5 13.7-16.3C60.8 2.7 52.5 0 41.6 0H12.4L0 58.6h15.5L20 37.3h10.3c5.5 0 7.8 2.7 7.8 7.9 0 3.9-.4 7-.4 10.1 0 1.1.3 3.7 1 4.7S48.8 70.5 50 71.8c-.7 1.6-9.7 20.8-9.7 20.8S59.5 81.2 61 80.3c1.4 1 15.4 11.8 15.4 11.8s-2.6-18-2.9-19.6C74.8 71.6 91.3 60 91.3 60zM35 26.3H22.7l3-14.1h11.5c4.1 0 8.3 1.1 8.3 6.1 0 6.3-4.9 8-10.5 8zm26.2 50.5s-9.6 5.7-14.4 8.5c2.3-4.8 6.6-14.2 6.6-14.2s-5.3-5.6-8-8.4h13.2s5.8-9.7 8.3-14.1c.7 4.6 2.3 14.2 2.3 14.2h13.1c-4.2 2.9-11.8 8.3-11.8 8.3s1.5 10 2.1 14.4c-3.5-2.7-11.4-8.7-11.4-8.7z"/></svg>